<svg id="Layer_1" data-name="Layer 1" xmlns="http://www.w3.org/2000/svg" viewBox="0 0 157 173.76"><defs><style>.cls-1{fill:#347bb7;}.cls-2{fill:#c1c0c0;}.cls-3{fill:#006838;}.cls-4{fill:#8dc63f;}.cls-5{fill:#f9a01b;}.cls-6{fill:#ffcb2a;}.cls-10,.cls-11,.cls-12,.cls-7,.cls-8{isolation:isolate;}.cls-10,.cls-8{font-size:9px;}.cls-12,.cls-8{fill:#010101;}.cls-10,.cls-11,.cls-12,.cls-8{font-family:ArialMT, Arial;}.cls-9{fill:#f9ed32;}.cls-10,.cls-13{fill:#231f20;}.cls-11{font-size:9px;fill:#989898;stroke:#231f20;stroke-miterlimit:10;}.cls-12{font-size:6px;}.cls-13{font-size:10px;font-family:MyriadPro-Regular, Myriad Pro;letter-spacing:-0.01em;}.cls-14{letter-spacing:0em;}</style></defs><title>filesystem-setup-initial</title><rect class="cls-1" x="97.51" y="90.62" width="4.68" height="19.44"/><path id="rect4188-1-4" class="cls-2" d="M153.61,116.32v20.8H93.08A1.86,1.86,0,0,0,91.21,139v21.86a1.86,1.86,0,0,0,1.87,1.87h1.06A1.86,1.86,0,0,0,96,160.85V141.92h36.8v20.8h4.8v-20.8h36.8v20.8h4.8v-20.8H216v18.93a1.86,1.86,0,0,0,1.87,1.87h1.06a1.86,1.86,0,0,0,1.87-1.87V139a1.86,1.86,0,0,0-1.87-1.87H158.41v-20.8Z" transform="translate(-76.68 -92.16)"/><path id="path4138-8" class="cls-3" d="M168.81,95.36h-14.4l-3.2-3.2h-8a3.21,3.21,0,0,0-3.2,3.2v6.4h32v-3.2A3.21,3.21,0,0,0,168.81,95.36Z" transform="translate(-76.68 -92.16)"/><path id="path4140-5" class="cls-4" d="M168.81,95.36h-25.6a3.21,3.21,0,0,0-3.2,3.2v16a3.21,3.21,0,0,0,3.2,3.2h25.6a3.21,3.21,0,0,0,3.2-3.2v-16A3.21,3.21,0,0,0,168.81,95.36Z" transform="translate(-76.68 -92.16)"/><g id="g4148-4-1-8"><path id="path4138-2-8-5" class="cls-5" d="M188.81,161.08h-14.4l-3.2-3.2h-8a3.21,3.21,0,0,0-3.2,3.2v6.4h32v-3.2A3.21,3.21,0,0,0,188.81,161.08Z" transform="translate(-76.68 -92.16)"/><path id="path4140-6-7-5" class="cls-6" d="M188.81,161.08h-25.6a3.21,3.21,0,0,0-3.2,3.2v16a3.21,3.21,0,0,0,3.2,3.2h25.6a3.21,3.21,0,0,0,3.2-3.2v-16A3.21,3.21,0,0,0,188.81,161.08Z" transform="translate(-76.68 -92.16)"/></g><path id="path4138-2-0-1" class="cls-3" d="M147.15,161.08h-14.4l-3.2-3.2h-8a3.21,3.21,0,0,0-3.2,3.2v6.4h32v-3.2a3.21,3.21,0,0,0-3.2-3.2Z" transform="translate(-76.68 -92.16)"/><path id="path4140-6-8-8" class="cls-4" d="M147.15,161.08h-25.6a3.21,3.21,0,0,0-3.2,3.2v16a3.21,3.21,0,0,0,3.2,3.2h25.6a3.21,3.21,0,0,0,3.2-3.2v-16a3.21,3.21,0,0,0-3.2-3.2Z" transform="translate(-76.68 -92.16)"/><g id="text4525-6" class="cls-7"><text class="cls-8" transform="translate(86.36 82.47)">home</text></g><path id="path4138-2-8-2-0" class="cls-9" d="M105.48,161.08H91.08l-3.2-3.2h-8a3.21,3.21,0,0,0-3.2,3.2v6.4h32v-3.2a3.21,3.21,0,0,0-3.2-3.2Z" transform="translate(-76.68 -92.16)"/><path id="path4140-6-7-6-5" class="cls-9" d="M105.48,161.08H79.88a3.21,3.21,0,0,0-3.2,3.2v16a3.21,3.21,0,0,0,3.2,3.2h25.6a3.21,3.21,0,0,0,3.2-3.2v-16a3.21,3.21,0,0,0-3.2-3.2Z" transform="translate(-76.68 -92.16)"/><path id="path4138-2-8-3-7" class="cls-3" d="M230.48,161.08h-14.4l-3.2-3.2h-8a3.21,3.21,0,0,0-3.2,3.2v6.4h32v-3.2a3.21,3.21,0,0,0-3.2-3.2Z" transform="translate(-76.68 -92.16)"/><path id="path4140-6-7-2-6" class="cls-4" d="M230.48,161.08h-25.6a3.21,3.21,0,0,0-3.2,3.2v16a3.21,3.21,0,0,0,3.2,3.2h25.6a3.21,3.21,0,0,0,3.2-3.2v-16a3.21,3.21,0,0,0-3.2-3.2Z" transform="translate(-76.68 -92.16)"/><g id="text4525-1-7" class="cls-7"><text class="cls-10" transform="translate(46.9 82.47)">data</text></g><g id="text4525-2-6" class="cls-7"><text class="cls-10" transform="translate(1.52 82.54)">scratch</text></g><g id="text4525-27-1" class="cls-7"><text class="cls-10" transform="translate(133.76 82.51)">bin</text></g><g id="text4525-3-7" class="cls-7"><text class="cls-11" transform="translate(77.33 17.56)">/</text></g><g id="g4148-4-1-67"><path id="path4138-2-8-0" class="cls-5" d="M188.53,202h-14.4l-3.2-3.2h-8a3.21,3.21,0,0,0-3.2,3.2v6.4h32v-3.2A3.21,3.21,0,0,0,188.53,202Z" transform="translate(-76.68 -92.16)"/><path id="path4140-6-7-7" class="cls-6" d="M188.53,202h-25.6a3.21,3.21,0,0,0-3.2,3.2v16a3.21,3.21,0,0,0,3.2,3.2h25.6a3.21,3.21,0,0,0,3.2-3.2v-16A3.21,3.21,0,0,0,188.53,202Z" transform="translate(-76.68 -92.16)"/></g><g id="text4525-9" class="cls-7"><text class="cls-12" transform="translate(84.91 122.71)">username</text></g><g id="g4148-4-1-3-2"><path id="path4138-2-8-3-4" class="cls-5" d="M189.33,243.52h-14.4l-3.2-3.2h-8a3.21,3.21,0,0,0-3.2,3.2v6.4h32v-3.2A3.21,3.21,0,0,0,189.33,243.52Z" transform="translate(-76.68 -92.16)"/><path id="path4140-6-7-2-7" class="cls-6" d="M189.33,243.52h-25.6a3.21,3.21,0,0,0-3.2,3.2v16a3.21,3.21,0,0,0,3.2,3.2h25.6a3.21,3.21,0,0,0,3.2-3.2v-16A3.21,3.21,0,0,0,189.33,243.52Z" transform="translate(-76.68 -92.16)"/></g><text class="cls-13" transform="translate(39.33 17.56)">r<tspan class="cls-14" x="3.17" y="0">oot</tspan></text><g id="text4525-9-2" data-name="text4525-9" class="cls-7"><text class="cls-12" transform="translate(85.91 158.76)">microbiome-<tspan x="0" y="7.2">data</tspan></text></g><rect class="cls-1" x="97.51" y="131.62" width="4.68" height="19.44"/></svg>