<?xml version="1.0" encoding="utf-8"?>
<!-- Generator: Adobe Illustrator 23.0.3, SVG Export Plug-In . SVG Version: 6.00 Build 0)  -->
<svg version="1.1" id="Layer_1" xmlns="http://www.w3.org/2000/svg" xmlns:xlink="http://www.w3.org/1999/xlink" x="0px" y="0px"
	 viewBox="0 0 198 231" style="enable-background:new 0 0 198 231;" xml:space="preserve">
<style type="text/css">
	.st0{fill:#347BB7;}
	.st1{fill:#C1C0C0;}
	.st2{fill:#006838;}
	.st3{fill:#8DC63F;}
	.st4{fill:#F9A01B;}
	.st5{fill:#FFCB2A;}
	.st6{fill:#010101;}
	.st7{font-family:'ArialMT';}
	.st8{font-size:9px;}
	.st9{fill:#F9ED32;}
	.st10{fill:#989898;}
	.st11{fill:none;stroke:#000000;stroke-miterlimit:10;}
	.st12{font-size:6px;}
	.st13{font-size:10px;}
</style>
<g>
	<rect x="111.2" y="107.8" class="st0" width="4.7" height="19.4"/>
	<path id="rect4188-1-4_1_" class="st1" d="M90.6,41.3v20.8h-16H51.9H31.1H30c-1,0-1.9,0.8-1.9,1.9v1.1v20.8c0,1,0.8,1.9,1.9,1.9
		h1.1c1,0,1.9-0.8,1.9-1.9V67h18.9h17.9v20.8h4.8V67h16h4.8h16v20.8h4.8V67H137h16v18.9c0,1,0.8,1.9,1.9,1.9h1.1
		c1,0,1.9-0.8,1.9-1.9V65.1V64c0-1-0.8-1.9-1.9-1.9h-19h-20.8H95.4V41.3H90.6z"/>
	<path id="path4138-8_1_" class="st2" d="M105.8,20.4H91.4l-3.2-3.2h-8c-1.8,0-3.2,1.4-3.2,3.2v6.4h32v-3.2
		C109,21.8,107.6,20.4,105.8,20.4z"/>
	<path id="path4140-5_1_" class="st3" d="M105.8,20.4H80.2c-1.8,0-3.2,1.4-3.2,3.2v16c0,1.8,1.4,3.2,3.2,3.2h25.6
		c1.8,0,3.2-1.4,3.2-3.2v-16C109,21.8,107.6,20.4,105.8,20.4z"/>
	<g id="g4148-4-1-8_1_" transform="translate(364.89882,495.81407)">
		<path id="path4138-2-8-5_1_" class="st4" d="M-239.1-409.7h-14.4l-3.2-3.2h-8c-1.8,0-3.2,1.4-3.2,3.2v6.4h32v-3.2
			C-235.9-408.3-237.3-409.7-239.1-409.7z"/>
		<path id="path4140-6-7-5_1_" class="st5" d="M-239.1-409.7h-25.6c-1.8,0-3.2,1.4-3.2,3.2v16c0,1.8,1.4,3.2,3.2,3.2h25.6
			c1.8,0,3.2-1.4,3.2-3.2v-16C-235.9-408.3-237.3-409.7-239.1-409.7z"/>
	</g>
	<path id="path4138-2-0-1_1_" class="st2" d="M84.1,86.1H69.7l-3.2-3.2h-8c-1.8,0-3.2,1.4-3.2,3.2v6.4h32v-3.2
		C87.3,87.5,85.9,86.1,84.1,86.1L84.1,86.1z"/>
	<path id="path4140-6-8-8_1_" class="st3" d="M84.1,86.1H58.5c-1.8,0-3.2,1.4-3.2,3.2v16c0,1.8,1.4,3.2,3.2,3.2h25.6
		c1.8,0,3.2-1.4,3.2-3.2v-16C87.3,87.5,85.9,86.1,84.1,86.1L84.1,86.1z"/>
	<text transform="matrix(1 0 0 1 100.0417 99.6339)" class="st6 st7 st8">home</text>
	<path id="path4138-2-8-2-0_1_" class="st9" d="M42.5,86.1H28.1l-3.2-3.2h-8c-1.8,0-3.2,1.4-3.2,3.2v6.4h32v-3.2
		C45.7,87.5,44.2,86.1,42.5,86.1L42.5,86.1z"/>
	<path id="path4140-6-7-6-5_1_" class="st9" d="M42.5,86.1H16.9c-1.8,0-3.2,1.4-3.2,3.2v16c0,1.8,1.4,3.2,3.2,3.2h25.6
		c1.8,0,3.2-1.4,3.2-3.2v-16C45.7,87.5,44.2,86.1,42.5,86.1L42.5,86.1z"/>
	<path id="path4138-2-8-3-7_1_" class="st2" d="M167.5,86.1h-14.4l-3.2-3.2h-8c-1.8,0-3.2,1.4-3.2,3.2v6.4h32v-3.2
		C170.7,87.5,169.2,86.1,167.5,86.1L167.5,86.1z"/>
	<path id="path4140-6-7-2-6_1_" class="st3" d="M167.5,86.1h-25.6c-1.8,0-3.2,1.4-3.2,3.2v16c0,1.8,1.4,3.2,3.2,3.2h25.6
		c1.8,0,3.2-1.4,3.2-3.2v-16C170.7,87.5,169.2,86.1,167.5,86.1L167.5,86.1z"/>
	<text transform="matrix(1 0 0 1 60.5837 99.6339)" class="st7 st8">data</text>
	<text transform="matrix(1 0 0 1 15.195 99.7042)" class="st7 st8">scratch</text>
	<text transform="matrix(1 0 0 1 147.4372 99.6691)" class="st7 st8">bin</text>
	<text transform="matrix(1 0 0 1 91.0095 34.7189)" class="st10 st7 st8">/</text>
	<text transform="matrix(1 0 0 1 91.0095 34.7189)" class="st11 st7 st8">/</text>
	<g id="g4148-4-1-67_1_" transform="translate(364.54522,574.48658)">
		<path id="path4138-2-8-0_1_" class="st4" d="M-239-447.5h-14.4l-3.2-3.2h-8c-1.8,0-3.2,1.4-3.2,3.2v6.4h32v-3.2
			C-235.8-446-237.3-447.5-239-447.5z"/>
		<path id="path4140-6-7-7_1_" class="st5" d="M-239-447.5h-25.6c-1.8,0-3.2,1.4-3.2,3.2v16c0,1.8,1.4,3.2,3.2,3.2h25.6
			c1.8,0,3.2-1.4,3.2-3.2v-16C-235.8-446-237.3-447.5-239-447.5z"/>
	</g>
	<text transform="matrix(1 0 0 1 98.5905 138.8722)" class="st6 st7 st12">username</text>
	<g id="g4148-4-1-3-2_2_" transform="translate(416.62856,574.48658)">
		<path id="path4138-2-8-3-4_2_" class="st4" d="M-290.3-406h-14.4l-3.2-3.2h-8c-1.8,0-3.2,1.4-3.2,3.2v6.4h32v-3.2
			C-287.1-404.5-288.5-406-290.3-406z"/>
		<path id="path4140-6-7-2-7_2_" class="st5" d="M-290.3-406h-25.6c-1.8,0-3.2,1.4-3.2,3.2v16c0,1.8,1.4,3.2,3.2,3.2h25.6
			c1.8,0,3.2-1.4,3.2-3.2v-16C-287.1-404.5-288.5-406-290.3-406z"/>
	</g>
	<text transform="matrix(1 0 0 1 53.0061 34.719)" class="st7 st13">root</text>
	<text transform="matrix(1 0 0 1 99.5904 175.9166)" class="st6 st7 st12">microbiome-</text>
	<text transform="matrix(1 0 0 1 99.5904 183.1166)" class="st6 st7 st12">data</text>
	<rect x="111.2" y="148.8" class="st0" width="4.7" height="19.4"/>
</g>
</svg>
